<svg width="12" height="10" viewBox="0 0 12 10" fill="none" xmlns="http://www.w3.org/2000/svg">
<path d="M11.874 1.241C11.747 1.179 11.692 1.2975 11.618 1.358C11.5925 1.3775 11.571 1.403 11.5495 1.426C11.3635 1.6245 11.1465 1.7545 10.863 1.739C10.4485 1.716 10.0945 1.846 9.78151 2.163C9.71501 1.772 9.49401 1.539 9.15801 1.389C8.98201 1.311 8.80401 1.2335 8.68051 1.064C8.59451 0.9435 8.57101 0.809 8.52801 0.677C8.50051 0.597 8.47301 0.5155 8.38151 0.502C8.28151 0.4865 8.24251 0.57 8.20351 0.64C8.04701 0.926 7.98651 1.241 7.99251 1.56C8.00601 2.278 8.30901 2.85 8.91151 3.2565C8.98001 3.303 8.99751 3.35 8.97601 3.418C8.93501 3.558 8.88601 3.694 8.84301 3.8345C8.81551 3.924 8.77451 3.943 8.67851 3.9045C8.35413 3.7651 8.05949 3.56482 7.81051 3.3145C7.38201 2.9005 6.99501 2.4435 6.51201 2.0855C6.40009 2.00281 6.28518 1.92426 6.16751 1.85C5.67501 1.3715 6.23251 0.9785 6.36151 0.932C6.49651 0.883 6.40801 0.716 5.97201 0.718C5.53601 0.72 5.13701 0.8655 4.62851 1.06C4.55294 1.08896 4.4752 1.11186 4.39601 1.1285C3.92082 1.03897 3.43483 1.02177 2.95451 1.0775C2.01201 1.1825 1.25951 1.6285 0.706005 2.389C0.0410053 3.303 -0.115495 4.342 0.0760054 5.425C0.277505 6.567 0.860505 7.5125 1.75601 8.2515C2.68501 9.018 3.75451 9.3935 4.97501 9.3215C5.71601 9.279 6.54151 9.1795 7.47201 8.3915C7.70701 8.5085 7.95301 8.555 8.36201 8.59C8.67701 8.6195 8.98001 8.575 9.21451 8.526C9.58201 8.448 9.55651 8.1075 9.42401 8.0455C8.34651 7.5435 8.58301 7.748 8.36751 7.5825C8.91551 6.9345 9.74051 6.2615 10.0635 4.081C10.0885 3.9075 10.067 3.7985 10.0635 3.6585C10.0615 3.5735 10.081 3.54 10.1785 3.5305C10.449 3.50244 10.7114 3.42176 10.951 3.293C11.649 2.9115 11.931 2.2855 11.9975 1.5345C12.0075 1.4195 11.9955 1.3015 11.874 1.241ZM5.79051 8C4.74601 7.179 4.23951 6.9085 4.03051 6.92C3.83451 6.932 3.87001 7.1555 3.91301 7.3015C3.95801 7.4455 4.01651 7.5445 4.09851 7.671C4.15551 7.7545 4.19451 7.879 4.04201 7.9725C3.70551 8.1805 3.12101 7.9025 3.09351 7.889C2.41301 7.488 1.84351 6.959 1.44301 6.2355C1.05601 5.539 0.831005 4.792 0.794005 3.9945C0.784005 3.8015 0.840505 3.7335 1.03251 3.6985C1.28456 3.65027 1.54282 3.64368 1.79701 3.679C2.86301 3.835 3.77001 4.3115 4.53101 5.066C4.96501 5.496 5.29351 6.0095 5.63201 6.5115C5.99201 7.0445 6.37901 7.5525 6.87201 7.9685C7.04601 8.1145 7.18451 8.2255 7.31751 8.307C6.91651 8.352 6.24751 8.362 5.79051 8ZM6.29051 4.78C6.29042 4.75516 6.29638 4.73068 6.30787 4.70866C6.31937 4.68664 6.33605 4.66775 6.35648 4.65362C6.37691 4.6395 6.40047 4.63056 6.42513 4.62757C6.44978 4.62459 6.4748 4.62765 6.49801 4.6365C6.52759 4.64711 6.55312 4.66669 6.57104 4.6925C6.58897 4.71831 6.59839 4.74908 6.59801 4.7805C6.59807 4.8008 6.5941 4.82092 6.58632 4.83967C6.57853 4.85842 6.56709 4.87544 6.55267 4.88973C6.53824 4.90401 6.52111 4.91529 6.50229 4.92289C6.48346 4.93049 6.46331 4.93427 6.44301 4.934C6.42286 4.93407 6.40289 4.93012 6.38429 4.92238C6.36569 4.91464 6.34881 4.90327 6.33466 4.88893C6.32051 4.87458 6.30935 4.85756 6.30186 4.83886C6.29436 4.82016 6.29017 4.80015 6.29051 4.78ZM7.84551 5.578C7.74551 5.6185 7.64601 5.6535 7.55051 5.658C7.40683 5.66301 7.26585 5.61814 7.15151 5.531C7.01451 5.416 6.91651 5.352 6.87551 5.152C6.86137 5.05426 6.86408 4.95482 6.88351 4.858C6.91851 4.6945 6.87951 4.5895 6.76401 4.4945C6.67051 4.4165 6.55101 4.395 6.42001 4.395C6.37515 4.3924 6.33159 4.37902 6.29301 4.356C6.23801 4.329 6.19301 4.261 6.23601 4.177C6.25001 4.15 6.31601 4.084 6.33201 4.072C6.51001 3.971 6.71551 4.004 6.90501 4.08C7.08101 4.152 7.21401 4.284 7.40551 4.471C7.60101 4.6965 7.63651 4.759 7.74801 4.928C7.83601 5.0605 7.91601 5.1965 7.97051 5.352C8.00401 5.4495 7.96101 5.529 7.84551 5.578Z" fill="#4D6BFE"/>
</svg>
