<svg xmlns="http://www.w3.org/2000/svg" width="29" height="38" viewBox="0 0 29 38" fill="#ffffff"><path d="M22.7008 33.3645C24.9566 31.9334 26.5162 24.2578 26.1731 21.9722C26.1731 21.9722 25.8156 20.7451 24.9431 20.745C24.0707 20.745 23.7077 21.6642 23.7077 21.6642C23.7077 21.6642 23.4781 22.5128 23.1177 23.5813C22.5602 25.2341 22.3257 27.2735 20.8717 27.7899C19.4177 28.3062 17.9636 27.8176 17.9636 27.8176C18.9523 31.5675 20.445 34.7957 22.7008 33.3645Z" fill="#ffffff"></path><path fill-rule="evenodd" clip-rule="evenodd" d="M11.5238 19.319C10.6951 19.4119 10.2586 19.7251 10.1114 19.8724C9.52968 20.454 9.23888 21.0357 9.23888 21.3265C9.23888 21.6173 8.55468 19.965 8.40438 19.8102C7.95678 19.3493 7.96768 18.6128 8.42858 18.1653C9.07558 17.537 10.1337 17.1337 11.2646 17.0069C12.4376 16.8754 13.8285 17.022 15.236 17.6454C16.8786 18.373 17.7584 19.9072 18.0907 21.3093C18.2594 22.021 18.3025 22.7523 18.216 23.4189C18.1321 24.0659 17.9112 24.7579 17.4517 25.2845C16.4946 26.3816 15.0828 26.258 14.3191 26.096C13.8887 26.0047 13.5092 25.8706 13.2422 25.7629C13.1068 25.7083 12.9956 25.6585 12.9157 25.6212C12.8757 25.6024 12.8433 25.5867 12.8193 25.5748C12.8074 25.5688 12.7975 25.5639 12.7898 25.56L12.7799 25.5549L12.7762 25.553L12.774 25.5519C12.774 25.5519 12.7734 25.5515 13.3106 24.5197L12.774 25.5519C12.2041 25.2552 11.9821 24.5524 12.2788 23.9825C12.5749 23.4138 13.2752 23.1921 13.8444 23.4862M13.8444 23.4862L13.8528 23.4904C13.8622 23.4951 13.879 23.5033 13.9024 23.5142C13.9493 23.5362 14.0214 23.5686 14.1124 23.6053C14.2982 23.6802 14.5436 23.7653 14.8019 23.8201C15.4155 23.9503 15.6361 23.8267 15.6987 23.755C15.7491 23.6972 15.8589 23.5045 15.9088 23.1197C15.9562 22.7545 15.9361 22.3068 15.8269 21.8458C15.6033 20.9023 15.068 20.1155 14.2937 19.7726C13.2843 19.3255 12.3105 19.2308 11.5238 19.319" fill="#ffffff"></path><path fill-rule="evenodd" clip-rule="evenodd" d="M3.83287 7.29911C3.54993 7.8759 3.78815 8.57285 4.36495 8.85579C5.19342 9.26218 5.91236 9.6629 6.62418 10.4655C7.05048 10.9461 7.78568 10.9901 8.26638 10.5638C8.74698 10.1375 8.79098 9.4023 8.36468 8.92166C7.35038 7.77803 6.30628 7.2167 5.38956 6.76703C4.81276 6.48409 4.11581 6.72231 3.83287 7.29911Z" fill="#ffffff"></path><path fill-rule="evenodd" clip-rule="evenodd" d="M10.12 3.91211C9.49668 4.06793 9.11778 4.6995 9.27358 5.32278C9.38248 5.75822 9.48398 6.13055 9.57688 6.47139C9.75478 7.12376 9.90128 7.66078 10.0075 8.30413C10.1121 8.93801 10.7108 9.36704 11.3447 9.2624C11.9785 9.15775 12.4076 8.55907 12.3029 7.92519C12.1774 7.16479 11.9819 6.44533 11.7857 5.72319C11.6989 5.40342 11.6118 5.08312 11.5307 4.75851C11.3749 4.13524 10.7433 3.75629 10.12 3.91211Z" fill="#ffffff"></path><path fill-rule="evenodd" clip-rule="evenodd" d="M16.7693 4.62784C16.22 4.29457 15.5046 4.46966 15.1713 5.01891C14.5619 6.02335 14.0817 7.28617 13.9013 8.67112C13.8184 9.3082 14.2676 9.8919 14.9046 9.97486C15.5417 10.0578 16.1254 9.60861 16.2084 8.97154C16.345 7.92204 16.7111 6.96625 17.1604 6.22579C17.4936 5.67654 17.3185 4.96111 16.7693 4.62784Z" fill="#ffffff"></path><path fill-rule="evenodd" clip-rule="evenodd" d="M19.3286 14.0563C21.6363 14.5174 21.6366 14.5157 21.6366 14.5157L21.637 14.514L21.6376 14.5104L21.639 14.5031L21.6418 14.4874C21.6437 14.4765 21.6457 14.4646 21.6477 14.4517C21.6519 14.4261 21.6563 14.3966 21.6606 14.3636C21.6692 14.298 21.6779 14.216 21.6837 14.1212C21.6948 13.9383 21.6971 13.6727 21.6503 13.3646C21.5617 12.7809 21.2218 11.6746 20.0239 11.0333L19.7869 10.9064L19.528 10.8347L18.9325 13.0539C19.4635 13.3382 19.3286 14.0563 19.3286 14.0563ZM18.9596 15.5204L19.3286 14.0563L21.6363 14.5174L21.6236 14.585L21.2511 16.063C21.1794 16.4263 21.17 16.634 21.1739 16.7437C21.177 16.833 21.1887 16.8623 21.1944 16.8767L21.195 16.8784C21.2096 16.9155 21.2473 16.996 21.385 17.2048C21.4412 17.29 21.4995 17.3753 21.5739 17.484C21.5935 17.5128 21.6143 17.5432 21.6365 17.5757C21.7364 17.7221 21.8534 17.8946 21.9772 18.0877C22.7512 19.2939 22.8272 20.4516 22.8231 21.1935C22.8231 21.2043 22.823 21.2152 22.8229 21.226C22.9154 21.2577 23.0137 21.2897 23.1181 21.323C23.1525 21.3339 23.1982 21.3483 23.2461 21.3635C23.3135 21.3847 23.3852 21.4074 23.4365 21.4238C23.5374 21.4562 23.6662 21.4983 23.7908 21.5447C23.8775 21.577 23.9607 21.6093 24.0389 21.6417C24.1141 21.6728 24.2058 21.7127 24.3023 21.7614C24.3772 21.7992 24.499 21.864 24.6369 21.9596L25.849 22.4812L25.8315 24.034C25.8211 24.9469 25.4538 25.9094 25.1933 26.5053C24.9061 27.1622 24.5266 27.8628 24.1773 28.3285C23.6894 28.9788 23.1365 29.6655 22.4715 30.1047C22.0794 30.3635 21.606 30.5693 21.0474 30.6368C20.5497 30.697 20.119 30.6303 19.8026 30.5533L19.7093 30.5342C19.6156 30.5149 19.4812 30.4872 19.3177 30.4532C18.9911 30.3852 18.5459 30.2915 18.0738 30.1889C17.2033 29.9999 16.0234 29.7355 15.4668 29.5508L15.4266 29.5374L15.3869 29.5227C15.1401 29.431 14.7227 29.3282 14.0314 29.1706C13.9896 29.161 13.947 29.1513 13.9037 29.1415C13.3073 29.0058 12.5733 28.8387 11.8783 28.6282C11.1585 28.4102 10.2681 28.086 9.51218 27.5577C8.71868 27.0032 7.81658 26.0254 7.76628 24.5588C7.75878 24.3392 7.76378 24.127 7.77738 23.9256C7.42008 23.5383 7.12018 23.032 6.96868 22.3837C6.82098 21.752 6.90268 21.192 7.00628 20.799C7.11008 20.4049 7.26788 20.0605 7.39978 19.803C7.44428 19.7161 7.49048 19.6304 7.53648 19.5476C7.10028 19.4099 6.60768 19.2399 6.12818 19.0355C5.50193 18.7685 4.61336 18.3281 3.94999 17.6172C3.59271 17.2343 3.21861 16.6855 3.06735 15.968C2.90906 15.2171 3.04059 14.4967 3.34882 13.8798C4.09916 12.3781 5.53238 11.8476 6.80708 11.8017C7.95818 11.7602 9.18298 12.0823 10.2804 12.4672C11.2803 12.8179 12.7115 13.4702 13.9272 14.0383C14.3277 13.3817 14.8555 12.6397 15.3552 12.0405L15.4545 11.9214L15.5694 11.8169C16.4292 11.0343 17.395 10.7712 18.131 10.7147C18.4918 10.6871 18.8024 10.7077 19.0348 10.7379C19.1522 10.7531 19.2535 10.7713 19.3357 10.7885C19.3769 10.7971 19.4137 10.8056 19.4458 10.8134C19.4618 10.8173 19.4767 10.8211 19.4904 10.8247L19.5101 10.8299L19.5193 10.8323L19.5237 10.8336L19.5258 10.8342C19.5258 10.8342 19.528 10.8347 18.9325 13.0539C18.9325 13.0539 18.0039 12.7968 17.2056 13.5015C17.1976 13.5086 17.1895 13.5158 17.1815 13.5231C17.1568 13.5528 17.1319 13.5829 17.1071 13.6133C17.0714 13.657 17.0356 13.7014 16.9998 13.7465C16.9893 13.7597 16.9788 13.7729 16.9684 13.7862C16.1717 14.797 16.2189 15.2193 14.7647 16.9644C14.7647 16.9644 14.0072 16.6136 13.5541 16.4006C13.2432 16.2544 12.9146 16.1 12.5797 15.9443C11.4994 15.442 10.3542 14.9269 9.52998 14.6378C7.50088 13.9262 6.00493 13.8358 5.45889 14.9286C4.73859 16.3702 7.66358 17.2054 9.13328 17.6252C9.44278 17.7136 9.68778 17.7835 9.82068 17.8368C10.5745 18.1394 10.6271 18.7465 10.4026 19.2907C10.2716 19.6082 10.1969 19.7872 9.82098 20.1631C9.23928 20.7448 9.14388 21.4335 9.25498 21.9086C9.31058 22.1465 9.42058 22.3195 9.55138 22.4453C9.90218 22.7828 10.4025 22.7807 10.4025 22.7807C10.4025 22.7807 10.0799 23.605 10.1115 24.5257C10.1184 24.7284 10.1729 24.9128 10.2668 25.0815C10.8245 26.0826 12.7717 26.5262 14.4078 26.8988C15.0949 27.0554 15.7272 27.1994 16.1786 27.3669C16.9876 27.6354 20.2898 28.3062 20.2898 28.3062C20.8992 28.4661 21.277 28.2726 22.2792 26.9366C22.6955 26.3817 23.4756 24.8121 23.4851 23.9637C23.3585 23.9093 23.3497 23.8903 23.3408 23.8712C23.3286 23.845 23.3163 23.8186 22.9963 23.6994C22.8893 23.6595 22.746 23.6143 22.5821 23.5626C21.8998 23.3474 20.8591 23.0192 20.581 22.4899C20.4459 22.2329 20.4566 21.8881 20.469 21.4849C20.4883 20.8579 20.512 20.0898 19.9994 19.2909C19.8736 19.0948 19.7529 18.9183 19.64 18.7532C18.9972 17.8135 18.6072 17.2433 18.9596 15.5204ZM8.21098 18.3583C8.21248 18.354 8.21198 18.355 8.21008 18.3608L8.21098 18.3583ZM22.8112 21.9333C22.8112 21.9333 22.8112 21.9242 22.8094 21.9085C22.81 21.9258 22.8112 21.9333 22.8112 21.9333Z" fill="#ffffff"></path></svg>
