<svg width="92" height="104" viewBox="0 0 92 104" fill="none" xmlns="http://www.w3.org/2000/svg">
<path d="M39.0279 91.4093C42.2901 91.4093 44.9347 94.0538 44.9347 97.316C44.9347 100.578 42.2901 103.223 39.0279 103.223C35.7658 103.223 33.1212 100.578 33.1212 97.316C33.1212 94.0538 35.7658 91.4093 39.0279 91.4093ZM71.7984 80.6322L77.6355 82.3617L73.002 97.9996C72.5972 99.366 71.2985 100.269 69.8766 100.172L68.4454 100.074L68.4104 100.102L53.5405 99.0589L53.9543 92.9851L63.9447 93.6631L57.4043 84.2281L62.4073 80.7594L68.9564 90.206L71.7984 80.6322ZM8.26758 69.8217L14.3403 70.2519L13.6289 80.2407L23.0467 73.6919L26.5233 78.6895L17.0932 85.2451L26.7186 88.0814L24.9981 93.9211L9.2864 89.2922C7.9147 88.888 7.00925 87.5836 7.1103 86.1572L8.26758 69.8217ZM47.477 61.3158L58.4371 74.5481L53.4974 78.6396L46.9747 70.7646L44.86 82.8724L38.5417 81.7679L40.6585 69.6413L31.8772 74.8188L28.6215 69.2925L43.3793 60.5983C44.7361 59.799 46.4725 60.103 47.477 61.3158ZM78.1411 52.438L83.6161 49.4592L91.592 64.1188C92.2907 65.403 92.0028 67.0003 90.8997 67.9597L89.7712 68.9346L78.2567 78.9555L74.1664 74.2525L81.9077 67.5177L70.3771 65.4405L71.4832 59.3066L83.0057 61.3827L78.1411 52.438ZM13.5737 37.1115L17.698 41.7847L10.0632 48.5184L21.6157 50.5353L20.5449 56.6755L8.97966 54.657L13.9473 63.6377L8.49335 66.6548L0.389582 52.0057C-0.317956 50.7267 -0.0415111 49.1278 1.05439 48.1606L13.5737 37.1115ZM52.6234 32.2904L63.5464 45.4872L58.6054 49.5769L52.0842 41.6985L49.9694 53.8099L43.6512 52.7054L45.7607 40.6259L37.0131 45.7538L33.7698 40.2201L47.2066 32.342L47.2198 32.2908L47.2791 32.2985L48.5312 31.5684C49.8878 30.7733 51.6208 31.079 52.6234 32.2904ZM66.6991 25.8002L69.0881 20.0433L84.5409 26.456C85.8897 27.0157 86.6689 28.4369 86.4156 29.8751L86.1583 31.3056L83.5195 46.3159L77.3812 45.2346L79.15 35.1866L68.8979 40.8527L65.8852 35.3964L76.1568 29.7256L66.6991 25.8002ZM37.2616 14.4558L37.5273 20.683L27.3195 21.1192L35.0184 29.9175L30.3277 34.0219L22.6158 25.2104L20.8191 35.2701L14.6836 34.1727L17.624 17.7333C17.881 16.2966 19.1007 15.2306 20.5589 15.1684L22.0034 15.1038L22.0358 15.0803L37.2616 14.4558ZM58.1423 1.17549L69.016 14.4556L64.0533 18.519L57.5995 10.6357L55.4228 22.7311L49.1101 21.5951L51.2906 9.47249L42.4792 14.6242L39.2432 9.08633L54.043 0.438254C55.4048 -0.357509 57.1431 -0.0448925 58.1423 1.17549Z" fill="#ffffff"/>
</svg>
