<?xml version="1.0" encoding="utf-8"?>
<svg xmlns="http://www.w3.org/2000/svg" viewBox="211.4406 130.6468 500.0041 76.1492" width="500.004px" height="76.1492px">
  <defs>
    <linearGradient gradientUnits="userSpaceOnUse" x1="9955.85" y1="1982.2" x2="9955.85" y2="3466.7" id="gradient-0" gradientTransform="matrix(0.835498, 0.549492, -1.52869, 2.324395, 6789.012414, -8092.324625)">
      <stop offset="0" style="stop-color: rgb(59.608% 6.2745% 98.039%)"/>
      <stop offset="1" style="stop-color: rgb(255, 0, 200);"/>
    </linearGradient>
    <linearGradient gradientUnits="userSpaceOnUse" x1="477.971" y1="193.597" x2="477.971" y2="206.597" id="gradient-1" gradientTransform="matrix(-0.729097, 0.68441, -0.662383, -0.705633, 959.432732, 14.085913)">
      <stop offset="0" style="stop-color: rgb(152, 16, 250);"/>
      <stop offset="1" style="stop-color: rgb(255, 0, 200);"/>
    </linearGradient>
  </defs>
  <g transform="matrix(1, 0, 0, 1, 2.1667380332946777, -11.26703929901123)">
    <g transform="matrix(0.050891, 0, 0, -0.050891, 96.066864, 318.337646)" fill="#000000" stroke="none">
      <path d="M 6314.93 3456.67 C 6185.93 3439.28 6020.93 3367.77 5916.93 3284.68 C 5805.93 3195.79 5716.93 3062.45 5673.93 2922.34 C 5658.93 2873.07 5654.93 2829.59 5655.93 2719.44 C 5655.93 2556.14 5668.93 2497.2 5732.93 2371.59 C 5765.93 2304.92 5790.93 2273.04 5864.93 2201.54 C 5940.93 2127.14 5969.93 2106.85 6049.93 2069.16 C 6193.93 2000.56 6275.93 1982.2 6449.93 1982.2 C 6573.93 1982.2 6608.93 1986.07 6691.93 2007.32 C 6796.93 2034.37 6934.93 2098.15 7014.93 2157.09 L 7064.93 2193.8 L 7067.93 2504.93 L 7069.93 2816.06 L 6754.93 2816.06 L 6439.93 2816.06 L 6439.93 2685.62 L 6439.93 2555.18 L 6604.93 2555.18 L 6769.93 2555.18 L 6769.93 2445.99 L 6769.93 2335.84 L 6707.93 2310.72 C 6606.93 2271.1 6578.93 2264.34 6494.93 2258.54 C 6405.93 2252.75 6312.93 2269.17 6233.93 2305.89 C 6167.93 2335.84 6068.93 2427.63 6036.93 2489.47 C 5926.93 2700.11 5981.93 2963.9 6162.93 3092.41 C 6256.93 3159.07 6314.93 3176.46 6449.93 3177.43 C 6590.93 3178.39 6662.93 3158.11 6769.93 3085.63 C 6808.93 3058.58 6842.93 3038.29 6843.93 3040.22 C 6844.93 3041.19 6885.93 3092.41 6933.93 3152.31 C 7004.93 3241.2 7018.93 3264.39 7008.93 3275.99 C 6983.93 3304.97 6854.93 3380.33 6785.93 3406.43 C 6678.93 3446.04 6575.93 3463.43 6452.93 3462.47 C 6393.93 3461.5 6331.93 3458.6 6314.93 3456.67 Z" style="fill: rgb(248, 241, 255);"/>
      <path d="M 2224.5 2722.2 L 2224.5 1982.2 L 2384.5 1982.2 L 2544.5 1982.2 L 2544.5 2237.2 L 2544.5 2492.2 L 2678.5 2492.2 L 2811.5 2492.2 L 2990.5 2237.2 L 3169.5 1982.2 L 3362.5 1982.2 L 3554.5 1982.2 L 3472.5 2095.2 C 3427.5 2156.2 3336.5 2281.2 3269.5 2372.2 L 3148.5 2537.2 L 3213.5 2567.2 C 3296.5 2604.2 3390.5 2695.2 3426.5 2772.2 C 3462.5 2848.2 3478.5 2939.2 3471.5 3025.2 C 3456.5 3202.2 3369.5 3332.2 3218.5 3403.2 C 3106.5 3457.2 3057.5 3462.2 2622.5 3462.2 L 2224.5 3462.2 L 2224.5 2722.2 Z M 3035.5 3161.2 C 3100.5 3130.2 3129.5 3094.2 3144.5 3027.2 C 3161.5 2949.2 3142.5 2877.2 3090.5 2827.2 C 3026.5 2765.2 2990.5 2757.2 2752.5 2757.2 L 2544.5 2756.2 L 2544.5 2975.2 L 2544.5 3194.2 L 2762.5 3190.2 C 2972.5 3187.2 2981.5 3186.2 3035.5 3161.2 Z" style="fill: rgb(248, 241, 255);"/>
      <path d="M 4383.14 3320.2 C 4350.14 3241.2 4211.14 2918.2 4075.14 2602.2 C 3939.14 2286.2 3824.14 2017.2 3819.14 2005.2 L 3810.14 1982.2 L 3979.14 1982.2 L 4148.14 1982.2 L 4206.14 2127.2 L 4265.14 2272.2 L 4604.14 2270.2 L 4942.14 2267.2 L 4999.14 2125.2 L 5055.14 1982.2 L 5228.14 1982.2 C 5322.14 1982.2 5400.14 1984.2 5400.14 1986.2 C 5400.14 1989.2 5260.14 2316.2 5089.14 2714.2 C 4918.14 3112.2 4776.14 3443.2 4773.14 3450.2 C 4769.14 3459.2 4726.14 3462.2 4606.14 3462.2 L 4444.14 3462.2 L 4383.14 3320.2 Z M 4720.14 2834.2 C 4782.14 2678.2 4830.14 2549.2 4828.14 2546.2 C 4825.14 2544.2 4722.14 2543.2 4598.14 2544.2 L 4373.14 2547.2 L 4476.14 2807.2 C 4533.14 2950.2 4584.14 3080.2 4590.14 3096.2 C 4595.14 3112.2 4602.14 3123.2 4604.14 3121.2 C 4606.14 3119.2 4658.14 2990.2 4720.14 2834.2 Z" style="fill: rgb(248, 241, 255);"/>
      <path d="M 7862.2 2723.2 L 7862.2 1982.2 L 8017.2 1985.2 L 8173.2 1988.2 L 8172.2 2468.2 C 8172.2 2882.2 8174.2 2946.2 8186.2 2933.2 C 8194.2 2925.2 8312.2 2767.2 8449.2 2583.2 C 8586.2 2399.2 8742.2 2188.2 8797.2 2116.2 L 8896.2 1983.2 L 9034.2 1983.2 L 9172.2 1983.2 L 9172.2 2723.2 L 9172.2 3463.2 L 9017.2 3463.2 L 8862.2 3463.2 L 8860.2 3006.2 L 8857.2 2549.2 L 8517.2 3005.2 L 8177.2 3462.2 L 8020.2 3462.2 L 7862.2 3463.2 L 7862.2 2723.2 Z M 9427.84 2722.2 L 9427.84 1982.2 L 9990.84 1984.2 L 10552.8 1987.2 L 10555.8 2125.2 L 10558.8 2262.2 L 10152.8 2262.2 L 9747.84 2262.2 L 9747.84 2427.2 L 9747.84 2592.2 L 10102.8 2592.2 L 10457.8 2592.2 L 10457.8 2727.2 L 10457.8 2862.2 L 10102.8 2862.2 L 9747.84 2862.2 L 9747.84 3022.2 L 9747.84 3182.2 L 10140.8 3184.2 L 10532.8 3187.2 L 10535.8 3325.2 L 10538.8 3462.2 L 9982.84 3462.2 L 9427.84 3462.2 L 9427.84 2722.2 Z M 11307.5 3465.2 L 10814.5 3462.2 L 10814.5 3322.2 L 10814.5 3182.2 L 11039.5 3182.2 L 11264.5 3182.2 L 11264.5 2582.2 L 11264.5 1982.2 L 11424.5 1982.2 L 11584.5 1982.2 L 11584.5 2582.2 L 11584.5 3182.2 L 11813.5 3182.2 L 12043.5 3182.2 L 12046.5 3322.2 L 12049.5 3462.2 L 11983.5 3462.2 C 11947.5 3462.2 11890.5 3463.2 11858.5 3465.2 C 11826.5 3467.2 11577.5 3467.2 11307.5 3465.2 Z" style="fill: url(&quot;#gradient-0&quot;);"/>
    </g>
  </g>
  <ellipse style="paint-order: fill; stroke-opacity: 0; stroke: rgb(0, 0, 0); fill: url(&quot;#gradient-1&quot;);" cx="478.189" cy="199.696" rx="7.15" ry="7.1"/>
</svg>
